<svg id="svg" version="1.1" width="400" height="515.1515151515151" viewBox="0 0 400 515.1515151515151" xmlns="http://www.w3.org/2000/svg" xmlns:xlink="http://www.w3.org/1999/xlink" ><g id="svgg"><path id="path0" d="M6.196 1.626 C 5.827 3.808,3.808 5.827,1.626 6.196 L 0.000 6.470 0.000 260.635 L 0.000 514.800 200.000 514.800 L 400.000 514.800 400.000 257.400 L 400.000 0.000 203.235 0.000 L 6.470 0.000 6.196 1.626 M154.116 50.069 C 155.821 50.928,156.895 52.464,157.844 55.400 C 158.200 56.500,159.269 58.846,160.219 60.614 C 161.170 62.381,162.256 65.053,162.632 66.552 C 164.162 72.644,163.325 72.453,190.000 72.786 C 203.480 72.954,212.267 73.219,213.023 73.479 C 215.118 74.200,216.554 75.080,217.800 76.406 C 218.460 77.108,219.934 78.285,221.075 79.020 C 224.208 81.040,224.755 82.898,223.214 86.292 C 221.246 90.628,219.764 90.883,194.800 91.164 C 170.922 91.434,171.824 91.306,168.528 94.898 C 165.421 98.286,165.000 99.515,165.000 105.200 C 165.000 114.374,165.490 114.658,182.200 115.177 C 194.513 115.560,195.501 115.756,199.289 118.571 C 201.090 119.909,202.831 120.749,205.589 121.611 C 208.475 122.513,209.896 123.214,211.441 124.501 C 212.563 125.435,214.304 126.771,215.309 127.469 C 216.329 128.178,217.791 129.768,218.618 131.069 C 219.434 132.351,220.861 134.218,221.790 135.219 C 223.067 136.593,223.752 137.864,224.591 140.419 C 225.202 142.278,226.286 144.790,227.001 146.000 C 229.154 149.644,230.482 156.346,231.192 167.145 C 231.566 172.837,231.697 173.516,232.967 176.345 C 234.728 180.272,235.199 182.974,235.202 189.173 C 235.204 191.938,235.477 196.000,235.811 198.200 C 236.144 200.400,236.594 204.810,236.810 208.000 C 237.807 222.694,238.431 224.125,242.335 220.657 C 244.008 219.172,244.833 218.783,247.923 218.019 C 251.173 217.216,251.807 216.899,254.045 214.961 C 256.527 212.811,258.305 212.009,260.600 212.000 C 262.864 211.992,264.908 211.131,266.753 209.410 C 267.769 208.462,269.751 207.013,271.157 206.190 C 272.564 205.368,274.364 204.113,275.157 203.401 C 275.951 202.690,277.860 201.301,279.400 200.314 C 283.564 197.647,289.284 191.874,291.268 188.334 C 297.732 176.806,297.764 175.427,291.717 169.005 C 287.022 164.020,288.489 164.315,266.800 163.984 C 244.650 163.646,245.417 163.811,242.371 158.734 C 240.160 155.050,240.048 153.296,241.800 149.818 C 244.132 145.188,244.620 145.108,269.331 145.275 C 289.703 145.413,288.877 145.310,291.400 148.015 C 294.079 150.886,300.292 151.868,303.241 149.887 C 306.866 147.450,308.113 143.268,306.646 138.463 C 306.065 136.558,305.592 134.370,305.595 133.600 C 305.611 128.690,302.770 122.141,298.583 117.438 C 291.263 109.216,292.578 109.552,266.800 109.326 C 243.129 109.119,242.751 109.078,239.841 106.395 C 233.168 100.244,232.405 89.365,238.412 86.001 L 240.200 85.000 262.800 84.867 C 288.476 84.717,288.531 84.721,291.485 87.364 C 293.939 89.559,294.469 89.824,298.022 90.632 C 300.617 91.222,301.229 91.550,303.183 93.394 C 304.402 94.544,306.913 96.266,308.763 97.220 C 312.576 99.187,313.691 100.466,315.778 105.261 C 316.481 106.877,317.721 109.124,318.533 110.254 C 321.792 114.789,322.332 120.722,322.150 150.000 C 322.059 164.466,321.891 169.811,321.443 172.400 C 320.464 178.056,319.181 183.741,318.644 184.800 C 318.365 185.350,317.636 186.748,317.023 187.907 C 316.277 189.318,315.583 191.762,314.922 195.307 C 313.938 200.584,313.386 202.453,311.463 207.001 C 309.746 211.064,309.453 217.977,309.744 247.600 C 310.047 278.421,310.215 281.311,311.910 284.934 C 313.532 288.400,313.899 290.555,314.198 298.400 C 314.337 302.030,314.708 306.620,315.024 308.600 C 315.339 310.580,315.598 313.614,315.598 315.341 C 315.602 323.325,316.411 330.040,317.797 333.600 C 319.554 338.115,319.511 337.928,319.997 343.200 C 320.230 345.730,320.693 349.510,321.025 351.600 C 321.358 353.690,321.870 357.944,322.162 361.053 C 322.466 364.275,322.951 367.199,323.292 367.853 C 323.621 368.484,324.367 369.831,324.950 370.847 C 325.787 372.306,326.091 373.560,326.402 376.825 C 326.619 379.098,326.883 381.237,326.989 381.579 C 327.095 381.920,327.454 384.153,327.787 386.541 C 328.238 389.781,328.762 391.701,329.852 394.115 C 336.831 409.573,335.138 427.250,325.935 434.993 C 322.458 437.919,318.799 434.824,317.356 427.737 C 315.580 419.013,315.219 417.024,314.587 412.462 C 314.202 409.683,313.433 406.472,312.602 404.177 C 311.116 400.073,310.312 396.471,309.413 389.890 C 309.059 387.302,308.403 384.585,307.771 383.090 C 306.330 379.683,305.600 376.944,305.600 374.944 C 305.600 374.020,305.251 371.764,304.824 369.932 C 304.397 368.099,303.675 362.820,303.219 358.200 C 302.263 348.516,302.248 348.425,300.966 344.279 C 300.435 342.563,300.000 340.395,300.000 339.461 C 300.000 338.528,299.563 336.062,299.028 333.982 C 298.494 331.902,297.856 328.145,297.610 325.633 C 297.365 323.121,297.082 320.932,296.980 320.768 C 296.879 320.605,296.539 316.990,296.224 312.735 C 295.791 306.892,295.438 304.413,294.782 302.600 C 294.124 300.780,293.830 298.701,293.567 294.000 C 293.377 290.590,292.953 286.540,292.626 285.000 C 291.826 281.228,291.125 255.143,291.449 241.200 C 291.895 222.002,290.725 218.443,285.239 222.305 C 284.008 223.172,282.417 224.181,281.704 224.548 C 280.992 224.916,279.525 226.000,278.446 226.959 C 276.507 228.681,274.707 229.542,271.200 230.425 C 269.836 230.768,268.849 231.445,267.127 233.216 C 264.061 236.370,263.458 236.501,252.835 236.314 L 244.200 236.162 241.554 234.868 L 238.908 233.575 233.354 234.048 C 226.897 234.598,226.405 234.821,224.845 237.908 C 220.427 246.653,210.690 243.344,195.037 227.779 C 193.477 226.228,191.390 224.347,190.400 223.600 C 189.410 222.853,187.859 221.602,186.954 220.821 C 186.049 220.039,184.008 218.592,182.419 217.605 C 178.887 215.411,177.429 213.512,174.669 207.505 L 172.600 203.000 172.600 194.400 L 172.600 185.800 174.320 181.904 C 179.070 171.147,178.124 170.294,161.200 170.063 C 141.694 169.798,137.681 171.208,142.509 176.634 C 144.903 179.325,147.588 182.903,148.855 185.090 C 151.373 189.439,152.488 203.524,150.652 207.787 C 148.404 213.004,141.138 221.432,136.151 224.606 C 134.858 225.429,133.049 226.790,132.131 227.631 C 130.997 228.670,129.714 229.362,128.131 229.790 C 124.771 230.698,122.742 231.831,121.600 233.435 C 121.050 234.208,119.520 235.582,118.200 236.489 C 116.880 237.396,114.810 239.009,113.600 240.073 C 108.455 244.600,104.871 247.250,102.072 248.597 C 100.431 249.387,98.372 250.646,97.497 251.395 C 93.709 254.638,88.649 251.293,88.728 245.598 C 88.792 240.914,97.507 230.309,105.963 224.623 C 107.153 223.823,109.141 222.231,110.381 221.084 C 112.131 219.467,113.272 218.796,115.480 218.089 C 117.676 217.386,118.882 216.680,120.779 214.987 C 122.130 213.782,124.134 212.340,125.232 211.784 C 132.671 208.014,134.757 200.330,130.656 191.800 C 128.095 186.472,127.169 182.825,127.019 177.478 C 126.832 170.823,126.083 170.346,115.664 170.257 C 105.225 170.168,103.246 170.919,101.994 175.446 C 101.697 176.521,100.654 179.061,99.676 181.092 L 97.899 184.784 97.806 196.892 C 97.753 203.819,97.526 209.856,97.274 211.000 C 97.033 212.100,96.466 214.710,96.016 216.800 C 94.229 225.078,87.745 227.211,84.597 220.557 C 81.593 214.207,80.994 206.581,83.005 200.285 C 83.662 198.228,84.000 196.246,84.000 194.449 C 84.000 192.953,84.275 188.865,84.610 185.364 C 84.946 181.864,85.387 176.107,85.589 172.572 C 85.792 169.037,86.231 164.897,86.566 163.372 C 86.900 161.847,87.356 159.216,87.579 157.523 C 87.803 155.831,88.351 153.491,88.798 152.323 C 89.244 151.156,90.171 148.040,90.856 145.400 C 92.227 140.121,92.688 139.059,95.589 134.500 C 98.456 129.993,98.976 129.402,102.304 126.883 C 107.110 123.243,107.637 122.915,110.800 121.582 C 112.450 120.888,114.610 119.645,115.600 118.821 C 119.118 115.893,122.044 115.209,131.129 115.189 C 142.543 115.165,145.791 114.322,146.947 111.084 C 148.002 108.130,148.133 102.344,147.252 97.600 C 146.824 95.290,146.366 90.790,146.236 87.600 C 145.948 80.519,145.221 75.895,143.817 72.200 C 142.000 67.419,141.729 54.937,143.381 52.139 C 145.218 49.030,150.161 48.077,154.116 50.069 M130.732 134.149 C 128.842 134.666,128.394 134.922,125.914 136.895 C 125.157 137.497,123.032 138.757,121.190 139.695 C 114.473 143.116,113.503 149.576,119.520 150.825 C 122.053 151.351,197.719 151.519,200.800 151.005 C 206.912 149.987,207.009 142.738,200.940 140.610 C 199.983 140.275,198.365 139.706,197.344 139.346 C 196.323 138.986,194.534 137.827,193.368 136.771 C 192.202 135.715,190.562 134.621,189.724 134.340 C 187.489 133.592,133.410 133.417,130.732 134.149 M195.034 170.427 C 189.121 170.951,187.917 172.676,190.671 176.680 C 192.650 179.559,192.789 183.179,191.059 186.800 C 189.525 190.011,189.653 191.700,191.751 195.897 C 192.714 197.824,193.814 200.362,194.195 201.537 C 194.680 203.032,195.383 204.114,196.532 205.137 C 197.436 205.942,199.171 207.624,200.388 208.874 C 202.040 210.573,203.461 211.543,206.000 212.704 C 208.010 213.624,210.371 215.111,211.775 216.341 C 217.732 221.561,221.602 217.225,219.816 207.330 C 219.465 205.389,219.007 200.290,218.798 196.000 C 218.360 187.019,218.083 185.248,216.480 181.170 C 215.838 179.536,215.192 177.416,215.045 176.458 C 214.155 170.666,209.200 169.173,195.034 170.427 M183.882 236.812 C 186.162 237.301,189.535 240.206,196.643 247.800 C 198.084 249.340,199.823 251.410,200.507 252.400 C 201.191 253.390,202.417 255.010,203.232 256.000 C 204.813 257.921,205.997 260.088,206.767 262.471 C 207.029 263.281,207.982 265.081,208.884 266.471 C 210.547 269.034,211.746 271.500,212.956 274.843 C 213.322 275.856,214.336 277.642,215.208 278.810 C 217.412 281.765,218.328 284.502,218.977 290.080 C 219.480 294.397,219.682 295.117,220.976 297.214 C 222.521 299.717,222.590 300.000,224.397 311.183 C 225.381 317.276,225.832 319.077,226.979 321.490 C 228.470 324.629,229.003 327.034,229.400 332.400 C 229.538 334.270,229.912 337.780,230.231 340.200 C 230.549 342.620,230.962 346.940,231.146 349.800 C 231.443 354.385,231.637 355.353,232.790 357.979 C 234.452 361.764,234.710 364.456,235.206 383.200 C 235.478 393.460,235.757 398.177,236.210 400.200 C 237.223 404.715,237.517 424.138,236.633 428.110 C 235.833 431.705,234.405 434.008,231.980 435.613 C 227.281 438.724,226.590 438.354,222.800 430.694 C 218.928 422.869,218.825 421.906,218.622 391.800 C 218.498 373.442,217.666 361.088,216.251 356.600 C 215.696 354.840,215.124 352.410,214.979 351.200 C 214.835 349.990,214.371 347.600,213.947 345.889 C 213.524 344.178,212.910 340.848,212.583 338.489 C 209.587 316.883,206.682 318.601,205.628 342.600 C 205.204 352.258,204.943 353.722,202.963 357.512 C 201.521 360.272,201.515 360.307,201.173 367.241 C 200.606 378.749,198.805 388.510,196.562 392.236 C 195.797 393.506,194.699 395.412,194.123 396.471 C 193.408 397.783,192.425 398.807,191.037 399.683 C 189.917 400.390,188.043 401.738,186.872 402.677 C 183.159 405.658,182.631 405.738,165.400 405.913 C 147.606 406.094,147.294 406.054,142.855 403.013 C 141.154 401.849,138.844 400.431,137.721 399.861 C 136.598 399.292,134.986 397.998,134.139 396.986 C 133.293 395.973,131.666 394.067,130.525 392.750 C 129.054 391.053,128.192 389.576,127.563 387.678 C 127.075 386.205,126.077 383.595,125.344 381.879 C 124.307 379.447,123.924 377.828,123.614 374.553 C 123.395 372.241,123.101 370.163,122.961 369.936 C 121.902 368.224,121.115 328.830,122.027 323.200 C 122.259 321.770,123.407 318.170,124.579 315.200 C 125.751 312.230,127.001 308.897,127.357 307.792 C 127.712 306.688,128.872 304.708,129.933 303.392 C 130.995 302.077,132.640 299.505,133.588 297.677 C 136.500 292.067,138.291 291.189,147.600 290.807 C 154.973 290.505,155.475 290.353,158.764 287.432 C 163.264 283.436,175.155 283.738,180.835 287.993 C 183.498 289.987,185.644 290.772,188.492 290.790 C 191.062 290.807,193.009 291.875,194.803 294.250 C 195.708 295.449,197.187 296.965,198.089 297.619 C 200.083 299.063,200.608 299.782,200.998 301.600 C 202.220 307.307,204.942 307.632,204.274 301.992 C 203.828 298.231,199.777 286.614,197.896 283.704 C 196.935 282.217,195.454 279.740,194.606 278.200 C 193.757 276.660,192.226 274.500,191.203 273.400 C 190.180 272.300,188.839 270.637,188.223 269.706 C 187.606 268.775,186.179 267.398,185.051 266.646 C 183.923 265.894,181.974 264.406,180.720 263.340 C 179.466 262.273,177.440 260.778,176.219 260.018 C 172.236 257.541,170.677 253.977,171.529 249.304 C 171.800 247.817,172.282 245.181,172.599 243.447 C 173.682 237.538,177.312 235.403,183.882 236.812 M150.289 237.831 C 151.446 238.576,155.943 244.634,156.252 245.863 C 158.170 253.506,153.531 262.217,145.356 266.323 C 140.584 268.720,135.262 274.115,133.159 278.689 C 132.286 280.587,130.884 282.800,129.859 283.895 C 124.338 289.798,122.652 293.173,121.462 300.706 C 120.791 304.952,120.340 306.136,117.848 310.196 C 116.166 312.934,115.013 316.479,114.402 320.783 C 113.997 323.640,113.750 324.207,111.049 328.465 C 110.473 329.373,110.217 330.882,109.952 334.925 C 109.762 337.826,109.343 342.540,109.022 345.400 C 108.700 348.260,108.332 352.220,108.204 354.200 C 107.449 365.842,107.396 366.172,105.766 369.278 L 104.232 372.200 103.930 385.600 C 103.503 404.478,102.922 417.529,102.425 419.400 C 102.191 420.280,101.826 423.700,101.615 427.000 C 101.056 435.726,100.236 438.001,97.651 437.999 C 93.942 437.995,92.075 435.053,90.923 427.400 C 90.060 421.672,89.952 384.524,90.769 374.600 C 91.023 371.520,91.394 365.940,91.593 362.200 C 91.841 357.572,92.226 354.378,92.801 352.200 C 93.265 350.440,93.802 347.534,93.994 345.741 C 94.185 343.949,94.726 341.249,95.196 339.741 C 95.754 337.947,96.321 334.097,96.834 328.600 C 97.830 317.935,98.357 315.289,100.384 310.789 C 101.287 308.782,102.564 304.877,103.221 302.111 C 104.012 298.782,105.020 295.849,106.201 293.440 C 107.458 290.875,108.332 288.264,109.159 284.600 C 110.512 278.611,111.059 277.172,112.902 274.752 C 114.910 272.115,119.277 265.362,121.018 262.200 C 121.866 260.660,123.694 258.000,125.080 256.288 C 126.466 254.576,127.600 253.008,127.600 252.802 C 127.600 252.367,140.990 238.957,142.248 238.132 C 144.259 236.814,148.464 236.657,150.289 237.831 M151.561 303.588 C 148.900 304.063,147.425 304.956,145.981 306.966 C 145.280 307.943,144.027 309.287,143.197 309.954 C 139.967 312.550,138.911 317.271,141.118 319.244 C 142.825 320.769,144.539 320.878,164.400 320.728 L 181.400 320.600 183.400 319.600 C 185.316 318.642,185.398 318.533,185.360 317.000 C 185.275 313.615,179.779 306.532,175.671 304.515 L 173.400 303.400 163.400 303.330 C 157.900 303.291,152.573 303.407,151.561 303.588 M144.738 339.972 C 139.247 340.561,136.573 346.354,140.144 349.926 L 141.217 351.000 161.909 351.225 C 173.289 351.349,182.999 351.594,183.487 351.769 C 186.534 352.861,188.555 344.920,185.939 342.135 C 183.947 340.015,182.443 339.851,164.200 339.766 C 154.960 339.722,146.202 339.815,144.738 339.972 M146.361 370.405 C 138.082 371.806,139.315 381.554,148.520 387.472 C 150.016 388.434,151.996 389.908,152.920 390.749 C 155.357 392.965,156.587 393.270,164.000 393.493 C 172.670 393.753,173.061 393.637,177.746 389.398 C 181.696 385.823,181.786 385.676,184.003 379.200 C 186.238 372.674,185.793 371.256,181.245 370.404 C 178.740 369.934,149.138 369.935,146.361 370.405 " stroke="none" fill="#ff0302" fill-rule="evenodd"></path><path id="path1" d="M0.000 3.245 L 0.000 6.489 1.458 6.215 C 4.150 5.711,5.711 4.150,6.215 1.458 L 6.489 0.000 3.245 0.000 L 0.000 0.000 0.000 3.245 M147.772 49.171 C 143.749 50.148,142.725 51.876,142.427 58.185 C 142.120 64.705,142.526 68.803,143.817 72.200 C 145.221 75.895,145.948 80.519,146.236 87.600 C 146.366 90.790,146.824 95.290,147.252 97.600 C 148.133 102.344,148.002 108.130,146.947 111.084 C 145.791 114.322,142.543 115.165,131.129 115.189 C 122.044 115.209,119.118 115.893,115.600 118.821 C 114.610 119.645,112.450 120.888,110.800 121.582 C 107.637 122.915,107.110 123.243,102.304 126.883 C 98.976 129.402,98.456 129.993,95.589 134.500 C 92.688 139.059,92.227 140.121,90.856 145.400 C 90.171 148.040,89.244 151.156,88.798 152.323 C 88.351 153.491,87.803 155.831,87.579 157.523 C 87.356 159.216,86.900 161.847,86.566 163.372 C 86.231 164.897,85.792 169.037,85.589 172.572 C 85.387 176.107,84.946 181.864,84.610 185.364 C 84.275 188.865,84.000 192.953,84.000 194.449 C 84.000 196.246,83.662 198.228,83.005 200.285 C 79.906 209.988,83.621 224.442,89.200 224.387 C 92.663 224.353,94.930 221.829,96.016 216.800 C 96.466 214.710,97.033 212.100,97.274 211.000 C 97.526 209.856,97.753 203.819,97.806 196.892 L 97.899 184.784 99.676 181.092 C 100.654 179.061,101.697 176.521,101.994 175.446 C 103.246 170.919,105.225 170.168,115.664 170.257 C 126.083 170.346,126.832 170.823,127.019 177.478 C 127.169 182.825,128.095 186.472,130.656 191.800 C 134.757 200.330,132.671 208.014,125.232 211.784 C 124.134 212.340,122.130 213.782,120.779 214.987 C 118.882 216.680,117.676 217.386,115.480 218.089 C 113.272 218.796,112.131 219.467,110.381 221.084 C 109.141 222.231,107.153 223.823,105.963 224.623 C 100.019 228.620,92.609 236.397,90.226 241.141 C 86.511 248.536,91.922 256.168,97.497 251.395 C 98.372 250.646,100.431 249.387,102.072 248.597 C 104.871 247.250,108.455 244.600,113.600 240.073 C 114.810 239.009,116.880 237.396,118.200 236.489 C 119.520 235.582,121.050 234.208,121.600 233.435 C 122.742 231.831,124.771 230.698,128.131 229.790 C 129.714 229.362,130.997 228.670,132.131 227.631 C 133.049 226.790,134.858 225.429,136.151 224.606 C 141.138 221.432,148.404 213.004,150.652 207.787 C 152.488 203.524,151.373 189.439,148.855 185.090 C 147.588 182.903,144.903 179.325,142.509 176.634 C 137.681 171.208,141.694 169.798,161.200 170.063 C 178.124 170.294,179.070 171.147,174.320 181.904 L 172.600 185.800 172.600 194.400 L 172.600 203.000 174.669 207.505 C 177.429 213.512,178.887 215.411,182.419 217.605 C 184.008 218.592,186.049 220.039,186.954 220.821 C 187.859 221.602,189.410 222.853,190.400 223.600 C 191.390 224.347,193.477 226.228,195.037 227.779 C 210.690 243.344,220.427 246.653,224.845 237.908 C 226.405 234.821,226.897 234.598,233.354 234.048 L 238.908 233.575 241.554 234.868 L 244.200 236.162 252.835 236.314 C 263.458 236.501,264.061 236.370,267.127 233.216 C 268.849 231.445,269.836 230.768,271.200 230.425 C 274.707 229.542,276.507 228.681,278.446 226.959 C 279.525 226.000,280.992 224.916,281.704 224.548 C 282.417 224.181,284.008 223.172,285.239 222.305 C 290.725 218.443,291.895 222.002,291.449 241.200 C 291.125 255.143,291.826 281.228,292.626 285.000 C 292.953 286.540,293.377 290.590,293.567 294.000 C 293.830 298.701,294.124 300.780,294.782 302.600 C 295.438 304.413,295.791 306.892,296.224 312.735 C 296.539 316.990,296.879 320.605,296.980 320.768 C 297.082 320.932,297.365 323.121,297.610 325.633 C 297.856 328.145,298.494 331.902,299.028 333.982 C 299.563 336.062,300.000 338.528,300.000 339.461 C 300.000 340.395,300.435 342.563,300.966 344.279 C 302.248 348.425,302.263 348.516,303.219 358.200 C 303.675 362.820,304.397 368.099,304.824 369.932 C 305.251 371.764,305.600 374.020,305.600 374.944 C 305.600 376.944,306.330 379.683,307.771 383.090 C 308.403 384.585,309.059 387.302,309.413 389.890 C 310.312 396.471,311.116 400.073,312.602 404.177 C 313.433 406.472,314.202 409.683,314.587 412.462 C 315.219 417.024,315.580 419.013,317.356 427.737 C 318.799 434.824,322.458 437.919,325.935 434.993 C 335.138 427.250,336.831 409.573,329.852 394.115 C 328.762 391.701,328.238 389.781,327.787 386.541 C 327.454 384.153,327.095 381.920,326.989 381.579 C 326.883 381.237,326.619 379.098,326.402 376.825 C 326.091 373.560,325.787 372.306,324.950 370.847 C 324.367 369.831,323.621 368.484,323.292 367.853 C 322.951 367.199,322.466 364.275,322.162 361.053 C 321.870 357.944,321.358 353.690,321.025 351.600 C 320.693 349.510,320.230 345.730,319.997 343.200 C 319.511 337.928,319.554 338.115,317.797 333.600 C 316.411 330.040,315.602 323.325,315.598 315.341 C 315.598 313.614,315.339 310.580,315.024 308.600 C 314.708 306.620,314.337 302.030,314.198 298.400 C 313.899 290.555,313.532 288.400,311.910 284.934 C 310.215 281.311,310.047 278.421,309.744 247.600 C 309.453 217.977,309.746 211.064,311.463 207.001 C 313.386 202.453,313.938 200.584,314.922 195.307 C 315.583 191.762,316.277 189.318,317.023 187.907 C 317.636 186.748,318.365 185.350,318.644 184.800 C 319.181 183.741,320.464 178.056,321.443 172.400 C 321.891 169.811,322.059 164.466,322.150 150.000 C 322.332 120.722,321.792 114.789,318.533 110.254 C 317.721 109.124,316.481 106.877,315.778 105.261 C 313.691 100.466,312.576 99.187,308.763 97.220 C 306.913 96.266,304.402 94.544,303.183 93.394 C 301.229 91.550,300.617 91.222,298.022 90.632 C 294.469 89.824,293.939 89.559,291.485 87.364 C 288.531 84.721,288.476 84.717,262.800 84.867 L 240.200 85.000 238.412 86.001 C 232.405 89.365,233.168 100.244,239.841 106.395 C 242.751 109.078,243.129 109.119,266.800 109.326 C 292.578 109.552,291.263 109.216,298.583 117.438 C 302.770 122.141,305.611 128.690,305.595 133.600 C 305.592 134.370,306.065 136.558,306.646 138.463 C 308.113 143.268,306.866 147.450,303.241 149.887 C 300.292 151.868,294.079 150.886,291.400 148.015 C 288.877 145.310,289.703 145.413,269.331 145.275 C 244.620 145.108,244.132 145.188,241.800 149.818 C 240.048 153.296,240.160 155.050,242.371 158.734 C 245.417 163.811,244.650 163.646,266.800 163.984 C 288.489 164.315,287.022 164.020,291.717 169.005 C 297.764 175.427,297.732 176.806,291.268 188.334 C 289.284 191.874,283.564 197.647,279.400 200.314 C 277.860 201.301,275.951 202.690,275.157 203.401 C 274.364 204.113,272.564 205.368,271.157 206.190 C 269.751 207.013,267.769 208.462,266.753 209.410 C 264.908 211.131,262.864 211.992,260.600 212.000 C 258.305 212.009,256.527 212.811,254.045 214.961 C 251.807 216.899,251.173 217.216,247.923 218.019 C 244.833 218.783,244.008 219.172,242.335 220.657 C 238.431 224.125,237.807 222.694,236.810 208.000 C 236.594 204.810,236.144 200.400,235.811 198.200 C 235.477 196.000,235.204 191.938,235.202 189.173 C 235.199 182.974,234.728 180.272,232.967 176.345 C 231.697 173.516,231.566 172.837,231.192 167.145 C 230.482 156.346,229.154 149.644,227.001 146.000 C 226.286 144.790,225.202 142.278,224.591 140.419 C 223.752 137.864,223.067 136.593,221.790 135.219 C 220.861 134.218,219.434 132.351,218.618 131.069 C 217.791 129.768,216.329 128.178,215.309 127.469 C 214.304 126.771,212.563 125.435,211.441 124.501 C 209.896 123.214,208.475 122.513,205.589 121.611 C 202.831 120.749,201.090 119.909,199.289 118.571 C 195.501 115.756,194.513 115.560,182.200 115.177 C 165.490 114.658,165.000 114.374,165.000 105.200 C 165.000 99.515,165.421 98.286,168.528 94.898 C 171.824 91.306,170.922 91.434,194.800 91.164 C 219.764 90.883,221.246 90.628,223.214 86.292 C 224.755 82.898,224.208 81.040,221.075 79.020 C 219.934 78.285,218.460 77.108,217.800 76.406 C 216.554 75.080,215.118 74.200,213.023 73.479 C 212.267 73.219,203.480 72.954,190.000 72.786 C 163.325 72.453,164.162 72.644,162.632 66.552 C 162.256 65.053,161.170 62.381,160.219 60.614 C 159.269 58.846,158.200 56.500,157.844 55.400 C 156.241 50.440,152.380 48.052,147.772 49.171 M189.724 134.340 C 190.562 134.621,192.202 135.715,193.368 136.771 C 194.534 137.827,196.323 138.986,197.344 139.346 C 198.365 139.706,199.983 140.275,200.940 140.610 C 207.009 142.738,206.912 149.987,200.800 151.005 C 197.719 151.519,122.053 151.351,119.520 150.825 C 113.503 149.576,114.473 143.116,121.190 139.695 C 123.032 138.757,125.157 137.497,125.914 136.895 C 128.394 134.922,128.842 134.666,130.732 134.149 C 133.410 133.417,187.489 133.592,189.724 134.340 M208.165 170.416 C 212.661 171.065,214.459 172.644,215.045 176.458 C 215.192 177.416,215.838 179.536,216.480 181.170 C 218.083 185.248,218.360 187.019,218.798 196.000 C 219.007 200.290,219.465 205.389,219.816 207.330 C 221.602 217.225,217.732 221.561,211.775 216.341 C 210.371 215.111,208.010 213.624,206.000 212.704 C 203.461 211.543,202.040 210.573,200.388 208.874 C 199.171 207.624,197.436 205.942,196.532 205.137 C 195.383 204.114,194.680 203.032,194.195 201.537 C 193.814 200.362,192.714 197.824,191.751 195.897 C 189.653 191.700,189.525 190.011,191.059 186.800 C 192.789 183.179,192.650 179.559,190.671 176.680 C 187.917 172.676,189.121 170.951,195.034 170.427 C 200.248 169.966,205.023 169.961,208.165 170.416 M178.200 236.774 C 174.548 237.663,173.411 239.018,172.599 243.447 C 172.282 245.181,171.800 247.817,171.529 249.304 C 170.677 253.977,172.236 257.541,176.219 260.018 C 177.440 260.778,179.466 262.273,180.720 263.340 C 181.974 264.406,183.923 265.894,185.051 266.646 C 186.179 267.398,187.606 268.775,188.223 269.706 C 188.839 270.637,190.180 272.300,191.203 273.400 C 192.226 274.500,193.757 276.660,194.606 278.200 C 195.454 279.740,196.935 282.217,197.896 283.704 C 199.777 286.614,203.828 298.231,204.274 301.992 C 204.942 307.632,202.220 307.307,200.998 301.600 C 200.608 299.782,200.083 299.063,198.089 297.619 C 197.187 296.965,195.708 295.449,194.803 294.250 C 193.009 291.875,191.062 290.807,188.492 290.790 C 185.644 290.772,183.498 289.987,180.835 287.993 C 175.155 283.738,163.264 283.436,158.764 287.432 C 155.475 290.353,154.973 290.505,147.600 290.807 C 138.291 291.189,136.500 292.067,133.588 297.677 C 132.640 299.505,130.995 302.077,129.933 303.392 C 128.872 304.708,127.712 306.688,127.357 307.792 C 127.001 308.897,125.751 312.230,124.579 315.200 C 123.407 318.170,122.259 321.770,122.027 323.200 C 121.115 328.830,121.902 368.224,122.961 369.936 C 123.101 370.163,123.395 372.241,123.614 374.553 C 123.924 377.828,124.307 379.447,125.344 381.879 C 126.077 383.595,127.075 386.205,127.563 387.678 C 128.192 389.576,129.054 391.053,130.525 392.750 C 131.666 394.067,133.293 395.973,134.139 396.986 C 134.986 397.998,136.598 399.292,137.721 399.861 C 138.844 400.431,141.154 401.849,142.855 403.013 C 147.294 406.054,147.606 406.094,165.400 405.913 C 182.631 405.738,183.159 405.658,186.872 402.677 C 188.043 401.738,189.917 400.390,191.037 399.683 C 192.425 398.807,193.408 397.783,194.123 396.471 C 194.699 395.412,195.797 393.506,196.562 392.236 C 198.805 388.510,200.606 378.749,201.173 367.241 C 201.515 360.307,201.521 360.272,202.963 357.512 C 204.943 353.722,205.204 352.258,205.628 342.600 C 206.323 326.768,208.154 319.751,210.143 325.300 C 210.799 327.130,211.634 331.644,212.583 338.489 C 212.910 340.848,213.524 344.178,213.947 345.889 C 214.371 347.600,214.835 349.990,214.979 351.200 C 215.124 352.410,215.696 354.840,216.251 356.600 C 217.666 361.088,218.498 373.442,218.622 391.800 C 218.825 421.906,218.928 422.869,222.800 430.694 C 226.590 438.354,227.281 438.724,231.980 435.613 C 234.405 434.008,235.833 431.705,236.633 428.110 C 237.517 424.138,237.223 404.715,236.210 400.200 C 235.757 398.177,235.478 393.460,235.206 383.200 C 234.710 364.456,234.452 361.764,232.790 357.979 C 231.637 355.353,231.443 354.385,231.146 349.800 C 230.962 346.940,230.549 342.620,230.231 340.200 C 229.912 337.780,229.538 334.270,229.400 332.400 C 229.003 327.034,228.470 324.629,226.979 321.490 C 225.832 319.077,225.381 317.276,224.397 311.183 C 222.590 300.000,222.521 299.717,220.976 297.214 C 219.682 295.117,219.480 294.397,218.977 290.080 C 218.328 284.502,217.412 281.765,215.208 278.810 C 214.336 277.642,213.322 275.856,212.956 274.843 C 211.746 271.500,210.547 269.034,208.884 266.471 C 207.982 265.081,207.029 263.281,206.767 262.471 C 205.997 260.088,204.813 257.921,203.232 256.000 C 202.417 255.010,201.191 253.390,200.507 252.400 C 199.436 250.850,196.279 247.296,193.111 244.073 C 186.063 236.904,183.274 235.539,178.200 236.774 M144.848 237.220 C 143.885 237.416,142.715 237.826,142.248 238.132 C 140.990 238.957,127.600 252.367,127.600 252.802 C 127.600 253.008,126.466 254.576,125.080 256.288 C 123.694 258.000,121.866 260.660,121.018 262.200 C 119.277 265.362,114.910 272.115,112.902 274.752 C 111.059 277.172,110.512 278.611,109.159 284.600 C 108.332 288.264,107.458 290.875,106.201 293.440 C 105.020 295.849,104.012 298.782,103.221 302.111 C 102.564 304.877,101.287 308.782,100.384 310.789 C 98.357 315.289,97.830 317.935,96.834 328.600 C 96.321 334.097,95.754 337.947,95.196 339.741 C 94.726 341.249,94.185 343.949,93.994 345.741 C 93.802 347.534,93.265 350.440,92.801 352.200 C 92.226 354.378,91.841 357.572,91.593 362.200 C 91.394 365.940,91.023 371.520,90.769 374.600 C 89.952 384.524,90.060 421.672,90.923 427.400 C 92.075 435.053,93.942 437.995,97.651 437.999 C 100.236 438.001,101.056 435.726,101.615 427.000 C 101.826 423.700,102.191 420.280,102.425 419.400 C 102.922 417.529,103.503 404.478,103.930 385.600 L 104.232 372.200 105.766 369.278 C 107.396 366.172,107.449 365.842,108.204 354.200 C 108.332 352.220,108.700 348.260,109.022 345.400 C 109.343 342.540,109.762 337.826,109.952 334.925 C 110.217 330.882,110.473 329.373,111.049 328.465 C 113.750 324.207,113.997 323.640,114.402 320.783 C 115.013 316.479,116.166 312.934,117.848 310.196 C 120.340 306.136,120.791 304.952,121.462 300.706 C 122.652 293.173,124.338 289.798,129.859 283.895 C 130.884 282.800,132.286 280.587,133.159 278.689 C 135.262 274.115,140.584 268.720,145.356 266.323 C 152.255 262.858,156.084 257.481,156.334 250.907 C 156.532 245.703,156.487 245.551,153.595 241.658 C 150.255 237.162,148.789 236.418,144.848 237.220 M175.671 304.515 C 179.779 306.532,185.275 313.615,185.360 317.000 C 185.398 318.533,185.316 318.642,183.400 319.600 L 181.400 320.600 164.400 320.728 C 144.539 320.878,142.825 320.769,141.118 319.244 C 138.911 317.271,139.967 312.550,143.197 309.954 C 144.027 309.287,145.280 307.943,145.981 306.966 C 148.425 303.564,149.996 303.236,163.400 303.330 L 173.400 303.400 175.671 304.515 M183.023 340.515 C 186.507 341.670,187.631 343.733,187.014 347.843 C 186.653 350.251,184.851 352.257,183.487 351.769 C 182.999 351.594,173.289 351.349,161.909 351.225 L 141.217 351.000 140.144 349.926 C 138.032 347.813,138.534 342.579,141.005 340.960 C 143.281 339.469,178.735 339.093,183.023 340.515 M181.245 370.404 C 185.793 371.256,186.238 372.674,184.003 379.200 C 181.786 385.676,181.696 385.823,177.746 389.398 C 173.061 393.637,172.670 393.753,164.000 393.493 C 156.587 393.270,155.357 392.965,152.920 390.749 C 151.996 389.908,150.016 388.434,148.520 387.472 C 139.315 381.554,138.082 371.806,146.361 370.405 C 149.138 369.935,178.740 369.934,181.245 370.404 " stroke="none" fill="#fff1ee" fill-rule="evenodd"></path></g></svg>